<?xml version="1.0" encoding="UTF-8" standalone="no"?>
<!-- Created with Inkscape (http://www.inkscape.org/) -->

<svg
   width="148.61758mm"
   height="148.61758mm"
   viewBox="0 0 148.61758 148.61758"
   version="1.1"
   id="svg1"
   xml:space="preserve"
   inkscape:version="1.3 (0e150ed6c4, 2023-07-21)"
   sodipodi:docname="sugarlens.svg"
   xmlns:inkscape="http://www.inkscape.org/namespaces/inkscape"
   xmlns:sodipodi="http://sodipodi.sourceforge.net/DTD/sodipodi-0.dtd"
   xmlns="http://www.w3.org/2000/svg"
   xmlns:svg="http://www.w3.org/2000/svg"><sodipodi:namedview
     id="namedview1"
     pagecolor="#ffffff"
     bordercolor="#000000"
     borderopacity="0.25"
     inkscape:showpageshadow="2"
     inkscape:pageopacity="0.0"
     inkscape:pagecheckerboard="0"
     inkscape:deskcolor="#d1d1d1"
     inkscape:document-units="mm"
     inkscape:zoom="0.4204826"
     inkscape:cx="285.38636"
     inkscape:cy="307.97945"
     inkscape:window-width="1920"
     inkscape:window-height="1137"
     inkscape:window-x="1912"
     inkscape:window-y="-8"
     inkscape:window-maximized="1"
     inkscape:current-layer="layer1" /><defs
     id="defs1" /><g
     inkscape:label="Layer 1"
     inkscape:groupmode="layer"
     id="layer1"
     transform="translate(-15.568671,-68.961231)"><g
       style="fill:#23baff;fill-opacity:1;stroke:#1b3f59;stroke-opacity:1"
       id="g3"
       transform="matrix(7.1152808,0,0,7.1152808,1.3381098,54.730669)"><path
         d="m 19.9604,11.4802 c 0,2.3292 -0.9377,4.4374 -2.4585,5.971 -0.5687,0.5735 -1.2185,1.0661 -1.9303,1.459 -1.2122,0.6691 -2.6058,1.0502 -4.0914,1.0502 C 6.79672,19.9604 3,16.1637 3,11.4802 3,6.79672 6.79672,3 11.4802,3 c 4.6835,0 8.4802,3.79672 8.4802,8.4802 z"
         stroke="#333333"
         stroke-width="2"
         id="path1"
         style="fill:#23baff;fill-opacity:1;stroke:#1b3f59;stroke-opacity:1" /><path
         d="m 18.1553,18.1553 3.7318,3.7318"
         stroke="#333333"
         stroke-width="2"
         stroke-linecap="round"
         id="path2"
         style="fill:#23baff;fill-opacity:1;stroke:#1b3f59;stroke-opacity:1" /></g><g
       style="fill:#1b3f59;fill-opacity:1;stroke:none;stroke-opacity:1"
       id="g2"
       transform="matrix(4.3185606,0.72670576,-0.72670576,4.3185606,34.364048,77.209346)"><path
         d="M 20.684,4.042 A 1.029,1.029 0 0 1 22,5.03 l -0.001,5.712 a 1.03,1.03 0 0 1 -1.647,0.823 L 18.71,10.33 14.53,15.898 a 1.647,1.647 0 0 1 -2.155,0.428 l -0.15,-0.1 -3.337,-2.507 -4.418,5.885 c -0.42,0.56 -1.185,0.707 -1.777,0.368 L 2.549,19.877 A 1.372,1.372 0 0 1 2.181,18.101 l 0.095,-0.144 5.077,-6.762 a 1.646,1.646 0 0 1 2.156,-0.428 l 0.149,0.1 3.336,2.506 3.522,-4.69 -1.647,-1.237 a 1.03,1.03 0 0 1 0.194,-1.76 L 15.2,5.636 20.685,4.041 Z"
         fill="#000000"
         id="path1-0"
         style="fill:#1b3f59;fill-opacity:1;stroke:none;stroke-opacity:1" /></g></g><style
     type="text/css"
     id="style1">&#10;	.feather_een{fill:#111918;}&#10;	.st0{fill:#0B1719;}&#10;</style></svg>
